<svg xmlns="http://www.w3.org/2000/svg" viewBox="0 0 750 500"><g id="freepik--background-simple--inject-67"><path d="M115.31,212.81c21.66-25.95,57-44.69,91-40.18S268,191.8,301.92,187.76C333.87,184,360,166,377.37,139.44s34.5-56.08,63.81-69c10.63-4.7,21.72-10.28,33.26-11.94,17.78-2.55,42.2-4.28,59.94-1.36,50.78,8.35,79.39,27.17,102.19,64.49s29,92.52,21.81,135.36c-9.6,57.26-29.92,81.5-60.65,115.8-79.3,81.4-218,93.61-330.21,73.46-39.92-7.17-87.26-27.32-111.06-45.57-34.52-26.47-49.18-50.6-60.24-78.13C81.65,286.22,88.78,244.59,115.31,212.81Z" style="fill:#e0e0e0"></path></g><g id="freepik--Device--inject-67"><path d="M514.4,117.53H120.07a12.31,12.31,0,0,0-12.31,12.31V408.37a12.31,12.31,0,0,0,12.31,12.31H271.41s9.63,29.76-20.21,45.17H392.71s-33.69-11.55-25-45.17H514.4a12.31,12.31,0,0,0,12.31-12.31V129.84A12.31,12.31,0,0,0,514.4,117.53Z" style="fill:#455a64"></path><path d="M322.5,391.38c5.36,7.67-3,16.06-10.7,10.7a3,3,0,0,1-.66-.66c-5.35-7.66,3-16.05,10.7-10.7A3,3,0,0,1,322.5,391.38Z" style="fill:#263238"></path><path d="M124.25,122.63h386a9.7,9.7,0,0,1,9.7,9.7V369.72a0,0,0,0,1,0,0H114.55a0,0,0,0,1,0,0V132.33a9.7,9.7,0,0,1,9.7-9.7Z" style="fill:#fff"></path><path d="M443.9,420.71c0,.14-56.11.24-125.32.24s-125.33-.1-125.33-.24,56.11-.23,125.33-.23S443.9,420.58,443.9,420.71Z" style="fill:#263238"></path><rect x="123.49" y="132.8" width="387.48" height="236.92" style="fill:#263238"></rect><path d="M153.14,369.64c-.2,0-.37-46.59-.37-104s.17-104,.37-104,.38,46.57.38,104S153.35,369.64,153.14,369.64Z" style="fill:#e0e0e0"></path><path d="M153.14,369.87c-.1,0-.16,0-.21-.29h0c-.09-.63-.11-2.5-.16-8.1,0-5.24-.08-12.74-.11-22.29-.08-19.65-.11-45.77-.11-73.56s0-53.93.11-73.57c0-9.56.07-17.06.11-22.3.05-5.59.07-7.47.16-8.09v0h0c0-.3.11-.3.21-.3s.17,0,.22.3h0v0c.09.63.11,2.5.15,8.09,0,5.24.09,12.74.12,22.3.07,19.66.11,45.78.11,73.57s0,53.9-.11,73.56c0,9.55-.07,17.05-.12,22.29,0,5.6-.06,7.47-.15,8.1h0C153.31,369.87,153.25,369.87,153.14,369.87Zm0-185.39c-.08,19.14-.14,48.52-.14,81.13s.06,62,.14,81.12c.09-19.15.14-48.52.14-81.12S153.23,203.62,153.14,184.48Z" style="fill:#e0e0e0"></path><path d="M145.11,170.34c0,.21-2.9.38-6.48.38s-6.47-.17-6.47-.38,2.9-.37,6.47-.37S145.11,170.14,145.11,170.34Z" style="fill:#e0e0e0"></path><path d="M138.63,171c-6.71,0-6.71-.39-6.71-.61s0-.61,6.71-.61,6.71.4,6.71.61S145.34,171,138.63,171Zm-5-.61c1.06.08,2.76.14,5,.14s4-.06,5.05-.14c-1.06-.07-2.76-.14-5.05-.14S134.64,170.27,133.58,170.34Z" style="fill:#e0e0e0"></path><path d="M145.11,184.05c0,.21-2.9.38-6.48.38s-6.47-.17-6.47-.38,2.9-.37,6.47-.37S145.11,183.85,145.11,184.05Z" style="fill:#e0e0e0"></path><path d="M138.63,184.66c-6.71,0-6.71-.39-6.71-.61s0-.61,6.71-.61,6.71.4,6.71.61S145.34,184.66,138.63,184.66Zm-5-.61c1.06.08,2.76.14,5,.14s4-.06,5.05-.14c-1.06-.07-2.76-.14-5.05-.14S134.64,184,133.58,184.05Z" style="fill:#e0e0e0"></path><path d="M145.11,197.76c0,.21-2.9.38-6.48.38s-6.47-.17-6.47-.38,2.9-.37,6.47-.37S145.11,197.56,145.11,197.76Z" style="fill:#e0e0e0"></path><path d="M138.63,198.37c-6.71,0-6.71-.39-6.71-.61s0-.6,6.71-.6,6.71.39,6.71.6S145.34,198.37,138.63,198.37Zm-5-.61c1.06.08,2.75.14,5,.14s4-.06,5.05-.14c-1.06-.07-2.76-.14-5.05-.14S134.65,197.69,133.59,197.76Z" style="fill:#e0e0e0"></path><path d="M145.11,211.47c0,.21-2.9.38-6.48.38s-6.47-.17-6.47-.38,2.9-.37,6.47-.37S145.11,211.27,145.11,211.47Z" style="fill:#e0e0e0"></path><path d="M138.63,212.08c-6.71,0-6.71-.39-6.71-.61s0-.61,6.71-.61,6.71.4,6.71.61S145.34,212.08,138.63,212.08Zm-5-.6c1.06.07,2.75.13,5,.13s4-.06,5-.13c-1.09-.08-2.82-.15-5-.15S134.69,211.4,133.6,211.48Z" style="fill:#e0e0e0"></path><path d="M145.11,225.18c0,.21-2.9.38-6.48.38s-6.47-.17-6.47-.38,2.9-.37,6.47-.37S145.11,225,145.11,225.18Z" style="fill:#e0e0e0"></path><path d="M138.63,225.79c-6.71,0-6.71-.39-6.71-.61s0-.6,6.71-.6,6.71.39,6.71.6S145.34,225.79,138.63,225.79Zm-5-.61c1.06.08,2.75.14,5,.14s4-.06,5.05-.14c-1.06-.07-2.76-.14-5.05-.14S134.65,225.11,133.59,225.18Z" style="fill:#e0e0e0"></path><path d="M145.11,238.89c0,.21-2.9.38-6.48.38s-6.47-.17-6.47-.38,2.9-.37,6.47-.37S145.11,238.69,145.11,238.89Z" style="fill:#e0e0e0"></path><path d="M138.63,239.5c-6.71,0-6.71-.39-6.71-.61s0-.6,6.71-.6,6.71.39,6.71.6S145.34,239.5,138.63,239.5Zm-5-.61c1.06.08,2.75.14,5,.14s4-.06,5.05-.14c-1.06-.07-2.76-.13-5.05-.13S134.65,238.82,133.59,238.89Z" style="fill:#e0e0e0"></path><path d="M145.11,252.6c0,.21-2.9.38-6.48.38s-6.47-.17-6.47-.38,2.9-.37,6.47-.37S145.11,252.4,145.11,252.6Z" style="fill:#e0e0e0"></path><path d="M138.63,253.21c-6.71,0-6.71-.39-6.71-.61s0-.6,6.71-.6,6.71.39,6.71.6S145.34,253.21,138.63,253.21Zm-5-.61c1.06.08,2.76.15,5,.15s4-.07,5.05-.15c-1.06-.07-2.76-.14-5.05-.14S134.64,252.53,133.58,252.6Z" style="fill:#e0e0e0"></path><path d="M145.11,266.32c0,.2-2.9.37-6.48.37s-6.47-.17-6.47-.37,2.9-.38,6.47-.38S145.11,266.11,145.11,266.32Z" style="fill:#e0e0e0"></path><path d="M138.63,266.92c-6.71,0-6.71-.39-6.71-.6s0-.61,6.71-.61,6.71.39,6.71.61S145.34,266.92,138.63,266.92Zm-5-.6c1.06.07,2.75.13,5,.13s4-.06,5.05-.13c-1.06-.08-2.76-.14-5.05-.14S134.65,266.24,133.59,266.32Z" style="fill:#e0e0e0"></path><path d="M145.11,280c0,.2-2.9.37-6.48.37s-6.47-.17-6.47-.37,2.9-.38,6.47-.38S145.11,279.82,145.11,280Z" style="fill:#e0e0e0"></path><path d="M138.63,280.63c-6.71,0-6.71-.39-6.71-.6s0-.61,6.71-.61,6.71.39,6.71.61S145.34,280.63,138.63,280.63Zm-5-.6c1.06.07,2.75.14,5,.14s4-.07,5-.14c-1.09-.08-2.82-.14-5-.14S134.69,280,133.6,280Z" style="fill:#e0e0e0"></path><path d="M145.11,293.74c0,.2-2.9.37-6.48.37s-6.47-.17-6.47-.37,2.9-.38,6.47-.38S145.11,293.53,145.11,293.74Z" style="fill:#e0e0e0"></path><path d="M138.63,294.34c-6.71,0-6.71-.39-6.71-.6s0-.61,6.71-.61,6.71.39,6.71.61S145.34,294.34,138.63,294.34Zm-5-.61c1.09.08,2.81.15,5,.15s4-.07,5-.15c-1.06-.07-2.76-.13-5-.13S134.66,293.66,133.6,293.73Z" style="fill:#e0e0e0"></path><path d="M145.11,307.45c0,.2-2.9.37-6.48.37s-6.47-.17-6.47-.37,2.9-.38,6.47-.38S145.11,307.24,145.11,307.45Z" style="fill:#e0e0e0"></path><path d="M138.63,308.05c-6.71,0-6.71-.39-6.71-.6s0-.61,6.71-.61,6.71.39,6.71.61S145.34,308.05,138.63,308.05Zm-5-.6c1.06.07,2.75.14,5,.14s4-.07,5.05-.14c-1.06-.08-2.76-.14-5.05-.14S134.65,307.37,133.59,307.45Z" style="fill:#e0e0e0"></path><path d="M145.11,321.16c0,.2-2.9.37-6.48.37s-6.47-.17-6.47-.37,2.9-.38,6.47-.38S145.11,321,145.11,321.16Z" style="fill:#e0e0e0"></path><path d="M138.63,321.77c-6.71,0-6.71-.4-6.71-.61s0-.61,6.71-.61,6.71.39,6.71.61S145.34,321.77,138.63,321.77Zm-5-.61c1.06.07,2.75.14,5,.14s4-.07,5-.14c-1.09-.08-2.82-.14-5-.14S134.69,321.08,133.6,321.16Z" style="fill:#e0e0e0"></path><path d="M145.11,334.87c0,.2-2.9.37-6.48.37s-6.47-.17-6.47-.37,2.9-.38,6.47-.38S145.11,334.66,145.11,334.87Z" style="fill:#e0e0e0"></path><path d="M138.63,335.47c-6.71,0-6.71-.39-6.71-.6s0-.61,6.71-.61,6.71.39,6.71.61S145.34,335.47,138.63,335.47Zm-5-.6c1.06.07,2.75.14,5,.14s4-.07,5.05-.14c-1.06-.08-2.76-.14-5.05-.14S134.65,334.79,133.59,334.87Z" style="fill:#e0e0e0"></path><path d="M145.11,348.58c0,.2-2.9.37-6.48.37s-6.47-.17-6.47-.37,2.9-.38,6.47-.38S145.11,348.37,145.11,348.58Z" style="fill:#e0e0e0"></path><path d="M138.63,349.19c-6.71,0-6.71-.4-6.71-.61s0-.61,6.71-.61,6.71.39,6.71.61S145.34,349.19,138.63,349.19Zm-5-.61c1.06.07,2.75.14,5,.14s4-.07,5.05-.14c-1.06-.08-2.76-.14-5.05-.14S134.65,348.5,133.59,348.58Z" style="fill:#e0e0e0"></path><path d="M145.11,362.29c0,.2-2.9.37-6.48.37s-6.47-.17-6.47-.37,2.9-.38,6.47-.38S145.11,362.08,145.11,362.29Z" style="fill:#e0e0e0"></path><path d="M138.63,362.9c-6.71,0-6.71-.4-6.71-.61s0-.61,6.71-.61,6.71.39,6.71.61S145.34,362.9,138.63,362.9Zm-5-.61c1.06.07,2.76.14,5,.14s4-.07,5.05-.14c-1.06-.08-2.76-.14-5.05-.14S134.64,362.21,133.58,362.29Z" style="fill:#e0e0e0"></path><path d="M197,169.54c0,.2-7.52.37-16.8.37s-16.8-.17-16.8-.37,7.52-.38,16.8-.38S197,169.33,197,169.54Z" style="fill:#004EFF"></path><path d="M180.2,170.14c-4.49,0-8.71,0-11.89-.11-5.15-.11-5.15-.2-5.15-.49s0-.39,5.15-.5c3.18-.07,7.4-.11,11.89-.11s8.71,0,11.88.11c5.15.11,5.15.2,5.15.5s0,.38-5.15.49C188.91,170.11,184.69,170.14,180.2,170.14Zm-13.12-.6c2.93.08,7.49.14,13.12.14s10.19-.06,13.12-.14c-2.93-.09-7.49-.14-13.12-.14S170,169.45,167.08,169.54Z" style="fill:#004EFF"></path><path d="M197,362.29c0,.2-7.52.37-16.8.37s-16.8-.17-16.8-.37,7.52-.38,16.8-.38S197,362.08,197,362.29Z" style="fill:#004EFF"></path><path d="M180.2,362.9c-4.49,0-8.71,0-11.89-.11-5.15-.12-5.15-.21-5.15-.5s0-.39,5.15-.5c3.18-.07,7.4-.11,11.89-.11s8.71,0,11.88.11c5.15.11,5.15.2,5.15.5s0,.38-5.15.5C188.91,362.86,184.69,362.9,180.2,362.9Zm-13.12-.61c2.93.08,7.48.14,13.12.14s10.19-.06,13.12-.14c-2.93-.09-7.48-.14-13.12-.14S170,362.2,167.08,362.29Z" style="fill:#004EFF"></path><path d="M243.79,197.76c0,.21-14.07.38-31.43.38s-31.43-.17-31.43-.38,14.07-.37,31.43-.37S243.79,197.56,243.79,197.76Z" style="fill:#004EFF"></path><path d="M212.36,198.37c-8.4,0-16.29,0-22.23-.11-9.44-.11-9.44-.18-9.44-.5s0-.38,9.44-.49c5.94-.08,13.84-.11,22.23-.11s16.29,0,22.23.11c9.44.11,9.44.17,9.44.49s0,.39-9.44.5C228.65,198.33,220.76,198.37,212.36,198.37Zm-24.49-.61c5.47.09,13.94.14,24.49.14s19-.05,24.5-.14c-5.47-.08-14-.14-24.5-.14S193.34,197.68,187.87,197.76Z" style="fill:#004EFF"></path><path d="M316.49,197.76c0,.21-14.08.38-31.43.38s-31.44-.17-31.44-.38,14.07-.37,31.44-.37S316.49,197.56,316.49,197.76Z" style="fill:#e0e0e0"></path><path d="M285.06,198.37c-8.4,0-16.3,0-22.24-.11-9.43-.11-9.43-.18-9.43-.5s0-.38,9.43-.49c5.95-.08,13.84-.11,22.24-.11s16.28,0,22.22.11c9.44.11,9.44.17,9.44.49s0,.39-9.44.5C301.35,198.33,293.45,198.37,285.06,198.37Zm-24.5-.61c5.47.09,13.95.14,24.5.14s19-.05,24.49-.14c-5.47-.08-13.95-.14-24.49-.14S266,197.68,260.56,197.76Z" style="fill:#e0e0e0"></path><path d="M288.71,211.47c0,.21-20.75.38-46.33.38s-46.32-.17-46.32-.38,20.73-.37,46.32-.37S288.71,211.27,288.71,211.47Z" style="fill:#e0e0e0"></path><path d="M242.38,212.08c-12.38,0-24,0-32.76-.11-13.8-.11-13.8-.17-13.8-.5s0-.38,13.8-.5c8.76-.07,20.4-.11,32.76-.11s24,0,32.76.11c13.8.12,13.8.18,13.8.5s0,.39-13.8.5C266.39,212,254.76,212.08,242.38,212.08Zm-36.1-.61c8.05.09,20.53.14,36.1.14s28.05-.05,36.1-.14c-8.05-.08-20.52-.14-36.1-.14S214.33,211.39,206.28,211.47Z" style="fill:#e0e0e0"></path><path d="M288.71,225.18c0,.21-20.75.38-46.33.38s-46.32-.17-46.32-.38,20.73-.37,46.32-.37S288.71,225,288.71,225.18Z" style="fill:#e0e0e0"></path><path d="M242.38,225.79c-12.37,0-24,0-32.76-.11-13.8-.11-13.8-.17-13.8-.5s0-.38,13.8-.49c8.75-.08,20.38-.11,32.76-.11s24,0,32.76.11c13.8.11,13.8.17,13.8.49s0,.39-13.8.5C266.38,225.75,254.75,225.79,242.38,225.79Zm-36.08-.61c8.06.09,20.52.14,36.08.14s28,0,36.08-.14c-8-.08-20.52-.14-36.08-.14S214.36,225.1,206.3,225.18Z" style="fill:#e0e0e0"></path><path d="M352.48,266.32c0,.2-20.74.37-46.32.37s-46.33-.17-46.33-.37,20.74-.38,46.33-.38S352.48,266.11,352.48,266.32Z" style="fill:#e0e0e0"></path><path d="M306.16,266.92c-12.37,0-24,0-32.76-.11-13.8-.11-13.8-.17-13.8-.49s0-.39,13.8-.5c8.75-.07,20.38-.11,32.76-.11s24,0,32.75.11c13.81.11,13.81.17,13.81.5s0,.38-13.81.49C330.16,266.89,318.53,266.92,306.16,266.92Zm-36.08-.6c8.05.08,20.52.13,36.08.13s28-.05,36.07-.13c-8.05-.09-20.51-.14-36.07-.14S278.13,266.23,270.08,266.32Z" style="fill:#e0e0e0"></path><path d="M325,238.89c0,.21-20.74.38-46.32.38s-46.33-.17-46.33-.38,20.74-.37,46.33-.37S325,238.69,325,238.89Z" style="fill:#e0e0e0"></path><path d="M278.64,239.5c-12.38,0-24,0-32.76-.11-13.8-.11-13.8-.17-13.8-.5s0-.38,13.8-.49c8.75-.08,20.39-.11,32.76-.11s24,0,32.75.11c13.81.11,13.81.17,13.81.49s0,.39-13.81.5C302.64,239.46,291,239.5,278.64,239.5Zm-36.08-.61c8.05.09,20.52.14,36.08.14s28-.05,36.07-.14c-8-.08-20.51-.13-36.07-.13S250.61,238.81,242.56,238.89Z" style="fill:#e0e0e0"></path><path d="M438.18,238.89c0,.21-20.74.38-46.32.38s-46.33-.17-46.33-.38,20.74-.37,46.33-.37S438.18,238.69,438.18,238.89Z" style="fill:#e0e0e0"></path><path d="M391.86,239.5c-12.38,0-24,0-32.76-.11-13.8-.11-13.8-.17-13.8-.5s0-.38,13.8-.49c8.75-.08,20.39-.11,32.76-.11s24,0,32.75.11c13.8.11,13.8.17,13.8.49s0,.39-13.8.5C415.86,239.46,404.23,239.5,391.86,239.5Zm-36.08-.61c8.05.09,20.52.14,36.08.14s28-.05,36.07-.14c-8.05-.08-20.51-.13-36.07-.13S363.83,238.81,355.78,238.89Z" style="fill:#e0e0e0"></path><path d="M398.81,211.47c0,.21-20.75.38-46.33.38s-46.32-.17-46.32-.38,20.73-.37,46.32-.37S398.81,211.27,398.81,211.47Z" style="fill:#e0e0e0"></path><path d="M352.48,212.08c-12.38,0-24,0-32.76-.11-13.8-.11-13.8-.17-13.8-.5s0-.38,13.8-.5c8.76-.07,20.4-.11,32.76-.11s24,0,32.76.11c13.8.12,13.8.18,13.8.5s0,.39-13.8.5C376.49,212,364.86,212.08,352.48,212.08Zm-36.1-.61c8.05.09,20.52.14,36.1.14s28-.05,36.11-.14c-8.06-.08-20.53-.14-36.11-.14S324.43,211.39,316.38,211.47Z" style="fill:#e0e0e0"></path><path d="M462.8,266.32c0,.2-20.74.37-46.32.37s-46.33-.17-46.33-.37,20.74-.38,46.33-.38S462.8,266.11,462.8,266.32Z" style="fill:#e0e0e0"></path><path d="M416.48,266.92c-12.37,0-24,0-32.76-.11-13.8-.11-13.8-.17-13.8-.49s0-.39,13.8-.5c8.75-.07,20.38-.11,32.76-.11s24,0,32.76.11c13.8.11,13.8.17,13.8.5s0,.38-13.8.49C440.48,266.89,428.85,266.92,416.48,266.92Zm-36.08-.6c8.06.08,20.52.13,36.08.13s28-.05,36.08-.13c-8.05-.09-20.52-.14-36.08-.14S388.46,266.23,380.4,266.32Z" style="fill:#e0e0e0"></path><path d="M450,225.18c0,.21-32.2.38-71.93.38s-71.93-.17-71.93-.38,32.2-.37,71.93-.37S450,225,450,225.18Z" style="fill:#e0e0e0"></path><path d="M378.09,225.79c-19.21,0-37.27,0-50.87-.11-15.76-.08-19.86-.13-20.92-.28h-.07v0c-.3,0-.3-.11-.3-.2s0-.14.3-.19v0h.06c1.07-.15,5.16-.2,20.93-.28,13.59-.08,31.65-.11,50.87-.11s37.28,0,50.87.11c15.77.08,19.86.13,20.93.28H450v0c.3,0,.3.11.3.19s0,.15-.3.2v0h-.06c-1.07.15-5.17.2-20.93.28C415.36,225.75,397.3,225.79,378.09,225.79ZM322,225.18c13.25.09,33.59.14,56.12.14s42.87,0,56.12-.14c-13.25-.08-33.59-.14-56.12-.14S335.22,225.1,322,225.18Z" style="fill:#e0e0e0"></path><path d="M197,184.05c0,.21-7.52.38-16.8.38s-16.8-.17-16.8-.38,7.52-.37,16.8-.37S197,183.85,197,184.05Z" style="fill:#e0e0e0"></path><path d="M180.2,184.66c-4.49,0-8.71,0-11.89-.11-5.15-.11-5.15-.2-5.15-.5s0-.38,5.15-.5c3.18-.07,7.4-.11,11.89-.11s8.71,0,11.88.11c5.15.12,5.15.21,5.15.5s0,.39-5.15.5C188.91,184.62,184.69,184.66,180.2,184.66Zm-13.12-.61c2.93.09,7.48.14,13.12.14s10.19-.05,13.12-.14c-2.93-.08-7.48-.14-13.12-.14S170,184,167.08,184.05Z" style="fill:#e0e0e0"></path><path d="M197,348.58c0,.2-7.52.37-16.8.37s-16.8-.17-16.8-.37,7.52-.38,16.8-.38S197,348.37,197,348.58Z" style="fill:#e0e0e0"></path><path d="M180.2,349.19c-4.49,0-8.71,0-11.89-.11-5.15-.12-5.15-.21-5.15-.5s0-.39,5.15-.5c3.18-.07,7.4-.11,11.89-.11s8.71,0,11.88.11c5.15.11,5.15.2,5.15.5s0,.38-5.15.5C188.91,349.15,184.69,349.19,180.2,349.19Zm-13.11-.61c2.93.08,7.48.14,13.11.14s10.18-.06,13.11-.14c-2.93-.08-7.48-.14-13.11-.14S170,348.5,167.09,348.58Z" style="fill:#e0e0e0"></path><path d="M213.65,238.89c0,.21-7.53.38-16.8.38s-16.8-.17-16.8-.38,7.52-.37,16.8-.37S213.65,238.69,213.65,238.89Z" style="fill:#e0e0e0"></path><path d="M196.85,239.5c-4.49,0-8.72,0-11.89-.11-5.15-.11-5.15-.2-5.15-.5s0-.38,5.15-.49c3.18-.07,7.4-.11,11.89-.11s8.7,0,11.88.11c5.15.11,5.15.2,5.15.49s0,.39-5.15.5C205.56,239.46,201.34,239.5,196.85,239.5Zm-13.11-.61c2.92.09,7.48.14,13.11.14S207,239,210,238.89c-2.92-.08-7.48-.13-13.1-.13S186.66,238.81,183.74,238.89Z" style="fill:#e0e0e0"></path><path d="M482.94,238.89c0,.21-7.52.38-16.79.38s-16.81-.17-16.81-.38,7.52-.37,16.81-.37S482.94,238.69,482.94,238.89Z" style="fill:#e0e0e0"></path><path d="M466.15,239.5c-4.49,0-8.72,0-11.89-.11-5.15-.11-5.15-.2-5.15-.5s0-.38,5.15-.49c3.18-.07,7.4-.11,11.89-.11s8.7,0,11.88.11c5.15.11,5.15.2,5.15.49s0,.39-5.15.5C474.85,239.46,470.63,239.5,466.15,239.5ZM453,238.89c2.92.09,7.48.14,13.11.14s10.18-.05,13.1-.14c-2.92-.08-7.48-.13-13.1-.13S456,238.81,453,238.89Z" style="fill:#e0e0e0"></path><path d="M243.79,293.65c0,.21-14.07.38-31.43.38s-31.43-.17-31.43-.38,14.07-.37,31.43-.37S243.79,293.45,243.79,293.65Z" style="fill:#004EFF"></path><path d="M212.36,294.26c-8.39,0-16.28,0-22.23-.11-9.44-.11-9.44-.18-9.44-.5s0-.38,9.44-.49c5.94-.07,13.83-.11,22.23-.11s16.29,0,22.23.11c9.44.11,9.44.17,9.44.49s0,.39-9.44.5C228.64,294.22,220.75,294.26,212.36,294.26Zm-24.51-.61c5.47.09,14,.15,24.51.15s19-.06,24.51-.15c-5.47-.08-14-.14-24.51-.14S193.32,293.57,187.85,293.65Z" style="fill:#004EFF"></path><path d="M316.49,293.65c0,.21-14.08.38-31.43.38s-31.44-.17-31.44-.38,14.07-.37,31.44-.37S316.49,293.45,316.49,293.65Z" style="fill:#e0e0e0"></path><path d="M285.06,294.26c-8.39,0-16.29,0-22.24-.11-9.43-.11-9.43-.18-9.43-.5s0-.38,9.43-.49c5.94-.07,13.84-.11,22.24-.11s16.29,0,22.22.11c9.44.11,9.44.17,9.44.49s0,.39-9.44.5C301.34,294.22,293.44,294.26,285.06,294.26Zm-24.52-.61c5.47.09,14,.15,24.52.15s19-.06,24.51-.15c-5.47-.08-13.95-.14-24.51-.14S266,293.57,260.54,293.65Z" style="fill:#e0e0e0"></path><path d="M288.71,307.36c0,.21-20.75.38-46.33.38s-46.32-.17-46.32-.38,20.73-.37,46.32-.37S288.71,307.16,288.71,307.36Z" style="fill:#e0e0e0"></path><path d="M242.38,308c-12.37,0-24,0-32.76-.11-13.8-.11-13.8-.17-13.8-.49s0-.39,13.8-.5c8.75-.07,20.38-.11,32.76-.11s24,0,32.76.11c13.8.11,13.8.17,13.8.5s0,.38-13.8.49C266.38,307.94,254.75,308,242.38,308Zm-36.08-.6c8.06.08,20.52.13,36.08.13s28-.05,36.08-.13c-8-.09-20.52-.14-36.08-.14S214.36,307.28,206.3,307.37Z" style="fill:#e0e0e0"></path><path d="M288.71,321.08c0,.2-20.75.37-46.33.37s-46.32-.17-46.32-.37,20.73-.38,46.32-.38S288.71,320.87,288.71,321.08Z" style="fill:#e0e0e0"></path><path d="M242.38,321.68c-12.38,0-24,0-32.76-.11-13.8-.11-13.8-.17-13.8-.49s0-.39,13.8-.5c8.76-.07,20.4-.11,32.76-.11s24,0,32.76.11c13.8.11,13.8.17,13.8.5s0,.38-13.8.49C266.39,321.65,254.76,321.68,242.38,321.68Zm-36.1-.6c8.05.08,20.53.14,36.1.14s28.05-.06,36.1-.14c-8.05-.09-20.52-.15-36.1-.15S214.33,321,206.28,321.08Z" style="fill:#e0e0e0"></path><path d="M325,334.79c0,.2-20.74.37-46.32.37s-46.33-.17-46.33-.37,20.74-.38,46.33-.38S325,334.58,325,334.79Z" style="fill:#e0e0e0"></path><path d="M278.64,335.4c-12.37,0-24,0-32.76-.11-13.8-.12-13.8-.18-13.8-.5s0-.39,13.8-.5c8.74-.07,20.38-.11,32.76-.11s24,0,32.75.11c13.81.11,13.81.17,13.81.5s0,.38-13.81.5C302.63,335.36,291,335.4,278.64,335.4Zm-36.11-.61c8.05.08,20.53.14,36.11.14s28.05-.06,36.1-.14c-8.05-.09-20.53-.14-36.1-.14S250.58,334.7,242.53,334.79Z" style="fill:#e0e0e0"></path><path d="M438.18,334.79c0,.2-20.74.37-46.32.37s-46.33-.17-46.33-.37,20.74-.38,46.33-.38S438.18,334.58,438.18,334.79Z" style="fill:#e0e0e0"></path><path d="M391.86,335.4c-12.37,0-24,0-32.76-.11-13.8-.12-13.8-.18-13.8-.5s0-.39,13.8-.5c8.74-.07,20.38-.11,32.76-.11s24,0,32.75.11c13.8.11,13.8.17,13.8.5s0,.38-13.8.5C415.85,335.36,404.22,335.4,391.86,335.4Zm-36.11-.61c8.05.08,20.53.14,36.11.14s28.05-.06,36.1-.14c-8-.09-20.53-.14-36.1-.14S363.8,334.7,355.75,334.79Z" style="fill:#e0e0e0"></path><path d="M398.81,307.36c0,.21-20.75.38-46.33.38s-46.32-.17-46.32-.38,20.73-.37,46.32-.37S398.81,307.16,398.81,307.36Z" style="fill:#e0e0e0"></path><path d="M352.48,308c-12.37,0-24,0-32.76-.11-13.8-.11-13.8-.17-13.8-.49s0-.39,13.8-.5c8.75-.07,20.38-.11,32.76-.11s24,0,32.76.11c13.8.11,13.8.17,13.8.5s0,.38-13.8.49C376.48,307.94,364.85,308,352.48,308Zm-36.08-.6c8.06.08,20.52.13,36.08.13s28-.05,36.08-.13c-8.06-.09-20.52-.14-36.08-.14S324.46,307.28,316.4,307.37Z" style="fill:#e0e0e0"></path><path d="M450,321.08c0,.2-32.2.37-71.93.37s-71.93-.17-71.93-.37,32.2-.38,71.93-.38S450,320.87,450,321.08Z" style="fill:#e0e0e0"></path><path d="M378.09,321.68c-19.22,0-37.28,0-50.87-.11-15.77-.08-19.86-.13-20.93-.28h-.06v0c-.3,0-.3-.11-.3-.19s0-.15.3-.2v0h.06c1.07-.15,5.17-.2,20.93-.28,13.61-.07,31.67-.11,50.87-.11s37.26,0,50.87.11c15.76.08,19.86.13,20.93.28H450v0c.3.05.3.11.3.2s0,.14-.3.19v0h-.07c-1.07.15-5.16.2-20.93.28C415.37,321.65,397.31,321.68,378.09,321.68Zm-56.16-.6c13.25.08,33.61.14,56.16.14s42.92-.06,56.16-.14c-13.25-.09-33.61-.15-56.16-.15S335.18,321,321.93,321.08Z" style="fill:#e0e0e0"></path><path d="M213.65,334.79c0,.2-7.53.37-16.8.37s-16.8-.17-16.8-.37,7.52-.38,16.8-.38S213.65,334.58,213.65,334.79Z" style="fill:#e0e0e0"></path><path d="M196.85,335.4c-4.49,0-8.71,0-11.89-.11-5.15-.12-5.15-.21-5.15-.5s0-.39,5.15-.5c3.17-.07,7.4-.11,11.89-.11s8.71,0,11.88.11c5.15.11,5.15.2,5.15.5s0,.38-5.15.5C205.55,335.36,201.33,335.4,196.85,335.4Zm-13.12-.61c2.92.08,7.48.14,13.12.14s10.19-.06,13.11-.14c-2.92-.09-7.48-.14-13.11-.14S186.65,334.7,183.73,334.79Z" style="fill:#e0e0e0"></path><path d="M482.94,334.79c0,.2-7.52.37-16.79.37s-16.81-.17-16.81-.37,7.52-.38,16.81-.38S482.94,334.58,482.94,334.79Z" style="fill:#e0e0e0"></path><path d="M466.15,335.4c-4.49,0-8.71,0-11.89-.11-5.15-.12-5.15-.21-5.15-.5s0-.39,5.15-.5c3.17-.07,7.4-.11,11.89-.11s8.7,0,11.88.11c5.15.11,5.15.2,5.15.5s0,.38-5.15.5C474.85,335.36,470.63,335.4,466.15,335.4ZM453,334.79c2.92.08,7.48.14,13.12.14s10.19-.06,13.11-.14c-2.92-.09-7.48-.14-13.11-.14S456,334.7,453,334.79Z" style="fill:#e0e0e0"></path></g><g id="freepik--Window--inject-67"><rect x="203.22" y="79.73" width="376.92" height="212.68" style="fill:#fff"></rect><path d="M580.14,292.4c0-1.6-.08-82-.2-212.67l.2.2L203.25,80h0l.26-.26c0,75.22,0,147.15,0,212.67l-.24-.24,376.92.24-376.92.25H203v-.25c0-65.52,0-137.45,0-212.67v-.26h.29l376.89.06h.2v.2C580.21,210.37,580.14,290.8,580.14,292.4Z" style="fill:#263238"></path><path d="M580.14,102.3c0,.14-84.44.26-188.58.26S203,102.44,203,102.3s84.42-.26,188.59-.26S580.14,102.15,580.14,102.3Z" style="fill:#263238"></path><path d="M220.94,91.62a3,3,0,1,1-3-3A3,3,0,0,1,220.94,91.62Z" style="fill:#263238"></path><path d="M232.35,91.62a3,3,0,1,1-3-3A3,3,0,0,1,232.35,91.62Z" style="fill:#263238"></path><path d="M243.76,91.62a3,3,0,1,1-3-3A3,3,0,0,1,243.76,91.62Z" style="fill:#263238"></path><path d="M513.29,136.3c0,.14-22.38.26-50,.26s-50-.12-50-.26,22.38-.27,50-.27S513.29,136.15,513.29,136.3Z" style="fill:#004EFF"></path><path d="M550.39,161c0,.14-31.16.26-69.61.26s-69.61-.12-69.61-.26,31.16-.26,69.61-.26S550.39,160.89,550.39,161Z" style="fill:#263238"></path><path d="M550.39,173c0,.14-31.16.26-69.61.26s-69.61-.12-69.61-.26,31.16-.26,69.61-.26S550.39,172.82,550.39,173Z" style="fill:#263238"></path><path d="M460.77,212.88H421.09a11,11,0,0,1-11-11h0a11,11,0,0,1,11-11h39.68a11,11,0,0,1,11,11h0A11,11,0,0,1,460.77,212.88Z" style="fill:#004EFF"></path><rect x="226.94" y="128.07" width="125.31" height="94.19" transform="translate(-0.62 1.03) rotate(-0.2)" style="fill:#004EFF"></rect><polygon points="227.11 222.48 270.67 163.78 297.91 200.31 316.23 180.66 352.42 222.03 227.11 222.48" style="fill:#004EFF"></polygon><path d="M309.27,156.47a9.87,9.87,0,1,1-9.9-9.83A9.87,9.87,0,0,1,309.27,156.47Z" style="fill:#004EFF"></path><g style="opacity:0.2"><polygon points="227.11 222.48 270.67 163.78 297.91 200.31 316.23 180.66 352.42 222.03 227.11 222.48"></polygon></g><g style="opacity:0.2"><path d="M309.27,156.47a9.87,9.87,0,1,1-9.9-9.83A9.87,9.87,0,0,1,309.27,156.47Z"></path></g><rect x="358.93" y="127.99" width="37.02" height="27.82" transform="translate(-0.5 1.34) rotate(-0.2)" style="fill:#004EFF"></rect><polygon points="358.98 155.87 371.85 138.53 379.89 149.33 385.3 143.52 395.99 155.74 358.98 155.87" style="fill:#004EFF"></polygon><path d="M383.25,136.38a2.92,2.92,0,1,1-2.93-2.91A2.91,2.91,0,0,1,383.25,136.38Z" style="fill:#004EFF"></path><g style="opacity:0.2"><polygon points="358.98 155.87 371.85 138.53 379.89 149.33 385.3 143.52 395.99 155.74 358.98 155.87"></polygon></g><g style="opacity:0.2"><path d="M383.25,136.38a2.92,2.92,0,1,1-2.93-2.91A2.91,2.91,0,0,1,383.25,136.38Z"></path></g><rect x="358.93" y="161.31" width="37.02" height="27.82" transform="translate(-0.62 1.34) rotate(-0.2)" style="fill:#004EFF"></rect><polygon points="358.98 189.2 371.85 171.86 379.89 182.65 385.3 176.84 395.99 189.06 358.98 189.2" style="fill:#004EFF"></polygon><path d="M383.25,169.7a2.92,2.92,0,1,1-2.93-2.91A2.91,2.91,0,0,1,383.25,169.7Z" style="fill:#004EFF"></path><g style="opacity:0.2"><polygon points="358.98 189.2 371.85 171.86 379.89 182.65 385.3 176.84 395.99 189.06 358.98 189.2"></polygon></g><g style="opacity:0.2"><path d="M383.25,169.7a2.92,2.92,0,1,1-2.93-2.91A2.91,2.91,0,0,1,383.25,169.7Z"></path></g><rect x="358.93" y="194.84" width="37.02" height="27.82" transform="translate(-0.74 1.34) rotate(-0.2)" style="fill:#004EFF"></rect><polygon points="358.98 222.72 371.85 205.38 379.89 216.18 385.3 210.37 395.99 222.59 358.98 222.72" style="fill:#004EFF"></polygon><path d="M383.25,203.22a2.93,2.93,0,0,1-2.91,2.93,2.92,2.92,0,1,1,2.91-2.93Z" style="fill:#004EFF"></path><g style="opacity:0.2"><polygon points="358.98 222.72 371.85 205.38 379.89 216.18 385.3 210.37 395.99 222.59 358.98 222.72"></polygon></g><g style="opacity:0.2"><path d="M383.25,203.22a2.93,2.93,0,0,1-2.91,2.93,2.92,2.92,0,1,1,2.91-2.93Z"></path></g><circle cx="278.31" cy="233.82" r="2.54" style="fill:#263238"></circle><circle cx="289.77" cy="233.82" r="2.54" style="fill:#e0e0e0"></circle><circle cx="301.22" cy="233.82" r="2.54" style="fill:#e0e0e0"></circle><path d="M465.94,255.82c0,.14-54.47.26-121.65.26s-121.65-.12-121.65-.26,54.45-.26,121.65-.26S465.94,255.67,465.94,255.82Z" style="fill:#263238"></path><path d="M465.94,269.48c0,.15-54.47.26-121.65.26s-121.65-.11-121.65-.26,54.45-.26,121.65-.26S465.94,269.34,465.94,269.48Z" style="fill:#263238"></path></g><g id="freepik--Plant--inject-67"><rect x="67.4" y="415.6" width="59.41" height="8.16" style="fill:#263238"></rect><path d="M126.92,423.87H67.3V415.5h59.62Zm-59.42-.2h59.21v-8H67.5Z" style="fill:#263238"></path><polygon points="72.91 421.05 81.46 463.24 113.1 463.24 121.37 423.77 72.91 421.05" style="fill:#263238"></polygon><polygon points="72.91 459.25 77.47 465.52 115.93 465.52 121.37 459.25 72.91 459.25" style="fill:#455a64"></polygon><path d="M94.88,422.28c-.12,0-.27-19.54-.34-43.65s0-43.65.09-43.65.27,19.54.34,43.65S95,422.28,94.88,422.28Z" style="fill:#263238"></path><path d="M108.11,373.37a2.2,2.2,0,0,1-.16.46c-.14.33-.31.75-.53,1.26L107,376l-.39,1.11c-.15.4-.3.83-.46,1.27s-.28.95-.44,1.46a59.38,59.38,0,0,0-1.66,7.27,88.22,88.22,0,0,0-.92,9.1,122.7,122.7,0,0,0,.47,16.61c.19,2.12.38,3.84.52,5,.06.56.11,1,.15,1.37a2.84,2.84,0,0,1,0,.48,1.89,1.89,0,0,1-.11-.47c-.06-.36-.14-.81-.23-1.36-.19-1.17-.43-2.89-.66-5a109.28,109.28,0,0,1-.59-16.66,83.47,83.47,0,0,1,1-9.14,57.8,57.8,0,0,1,1.76-7.3c.17-.51.31-1,.48-1.45s.33-.87.49-1.27.29-.76.43-1.1.29-.63.42-.91l.61-1.23A2.29,2.29,0,0,1,108.11,373.37Z" style="fill:#263238"></path><path d="M106.59,357.56a3,3,0,0,1-.19.65c-.15.45-.36,1.06-.62,1.81-.13.4-.28.84-.45,1.31l-.48,1.58c-.34,1.13-.75,2.42-1.11,3.87-.19.72-.38,1.47-.59,2.25s-.37,1.62-.56,2.48c-.41,1.7-.71,3.55-1.1,5.48-.65,3.88-1.23,8.17-1.63,12.7s-.53,8.86-.59,12.79,0,7.49.2,10.47c0,1.48.15,2.83.22,4s.15,2.2.22,3,.11,1.44.15,1.91,0,.67,0,.67a3.23,3.23,0,0,1-.11-.66c0-.47-.13-1.11-.22-1.91s-.2-1.84-.29-3-.22-2.53-.29-4c-.2-3-.28-6.53-.29-10.48s.19-8.29.56-12.83,1-8.84,1.67-12.73c.39-1.94.71-3.79,1.14-5.49.2-.85.39-1.68.58-2.47l.63-2.26c.37-1.45.8-2.73,1.17-3.86l.51-1.57.49-1.3.69-1.79C106.49,357.77,106.58,357.56,106.59,357.56Z" style="fill:#263238"></path><path d="M91.12,425.74a.72.72,0,0,1,0-.23c0-.17,0-.39-.06-.67,0-.62-.1-1.49-.18-2.59-.14-2.28-.34-5.52-.59-9.52-.52-8-1.26-19.14-2.62-31.35-.69-6.11-1.49-11.9-2.32-17.16-.44-2.62-.85-5.12-1.3-7.44s-.87-4.49-1.28-6.46-.83-3.74-1.18-5.31-.68-2.89-1-4-.46-1.92-.61-2.52l-.15-.66a1,1,0,0,1,0-.23,1,1,0,0,1,.08.22l.19.64.69,2.5c.31,1.09.66,2.42,1,4s.83,3.32,1.24,5.3.9,4.12,1.33,6.45.89,4.82,1.34,7.45c.86,5.26,1.67,11.06,2.37,17.17,1.35,12.23,2.05,23.34,2.49,31.38.22,4,.37,7.28.46,9.53,0,1.1.07,2,.09,2.6,0,.27,0,.49,0,.67A.82.82,0,0,1,91.12,425.74Z" style="fill:#263238"></path><path d="M94.39,344.37c-.26-2.77-3-4.85-5.84-4.88a9.18,9.18,0,0,0-7.07,3.84,21.92,21.92,0,0,0-3.4,7.56A51.19,51.19,0,0,0,76,371c.8,6.74,3.53,13.38,8.37,18.14.79.77,1.81,1.55,2.88,1.32a3.6,3.6,0,0,0,1.53-.94,45,45,0,0,0,14.61-34.24c-.08-2.56-.41-5.23-1.83-7.36s-4.73-4.4-7.15-3.55" style="fill:#004EFF"></path><path d="M73.63,322.19l-3.92,7.1c-.09.16-.21.35-.4.36s-.36-.17-.47-.35L58.48,313.41l2.39-1.35Z" style="fill:#004EFF"></path><g style="opacity:0.2"><path d="M73.63,322.19l-3.92,7.1c-.09.16-.21.35-.4.36s-.36-.17-.47-.35L58.48,313.41l2.39-1.35Z"></path></g><path d="M94.63,335,59.31,314.13a1.64,1.64,0,0,1-.86-.86,1.61,1.61,0,0,1,.63-1.42A24.33,24.33,0,0,1,78,304.43,21.6,21.6,0,0,1,95,315.05c3.41,6.09,3.52,14.14-.39,19.93" style="fill:#004EFF"></path><path d="M64.4,307.48l.46-.06c.31,0,.76-.07,1.34-.06a26.6,26.6,0,0,1,4.9.39,28.19,28.19,0,0,1,7,2.12,28.91,28.91,0,0,1,7.49,4.86A28.86,28.86,0,0,1,94,328.44a26.3,26.3,0,0,1,.88,4.83,9.34,9.34,0,0,1,0,1,1.73,1.73,0,0,1-.27.77,6.12,6.12,0,0,0,0-1.78,28.8,28.8,0,0,0-1-4.77A28.82,28.82,0,0,0,71,308a31.65,31.65,0,0,0-4.84-.52C65,307.5,64.4,307.52,64.4,307.48Z" style="fill:#263238"></path><path d="M89.85,320.59a8.56,8.56,0,0,1-1.79.81c-1.12.45-2.69,1-4.45,1.57s-3.37,1-4.55,1.29a8.72,8.72,0,0,1-1.93.37A9.53,9.53,0,0,1,79,324l4.5-1.4L88,321.12A9.33,9.33,0,0,1,89.85,320.59Z" style="fill:#263238"></path><path d="M84.29,305.65a24.54,24.54,0,0,1,.2,7.9,71,71,0,0,1-.2-7.9Z" style="fill:#263238"></path><path d="M59,313.74a14.65,14.65,0,0,1,2.57-.9c1.6-.5,3.84-1.13,6.33-1.73s4.76-1.06,6.42-1.35A15,15,0,0,1,77,309.4a19.62,19.62,0,0,1-2.63.66c-1.64.36-3.9.87-6.38,1.46s-4.73,1.18-6.35,1.6A19.33,19.33,0,0,1,59,313.74Z" style="fill:#263238"></path><path d="M79.73,338.37c-3-2.31-6.25-2.76-10.06-2.61a30.7,30.7,0,0,0-11,2.84c-5.95,2.61-11.55,6.45-15.11,11.9s-4.8,12.64-2.14,18.57a2.69,2.69,0,0,0,1.21,1.47,2.87,2.87,0,0,0,2-.15c6.78-2.21,13.6-4.45,19.83-7.91s11.9-8.27,15.24-14.56a12.72,12.72,0,0,0,1.61-4.83,6,6,0,0,0-1.56-4.72" style="fill:#004EFF"></path><path d="M79.79,337.65a2.62,2.62,0,0,1-.49.2l-1.42.49-1,.34c-.38.13-.77.3-1.2.47-.86.34-1.86.69-2.9,1.2l-1.67.76c-.57.26-1.15.59-1.76.9-1.22.6-2.47,1.37-3.79,2.15a66.7,66.7,0,0,0-8,5.95,65.92,65.92,0,0,0-6.92,7.2c-1,1.21-1.87,2.35-2.62,3.49-.39.56-.79,1.09-1.12,1.63l-1,1.55c-.63,1-1.1,1.92-1.56,2.72-.22.41-.43.78-.61,1.14s-.33.67-.47,1c-.28.55-.5,1-.67,1.35a2.83,2.83,0,0,1-.26.46,2.72,2.72,0,0,1,.18-.5c.16-.35.35-.81.6-1.38l.44-1c.17-.36.37-.74.58-1.15.44-.82.89-1.78,1.52-2.77l.94-1.58c.33-.54.73-1.08,1.11-1.65.74-1.16,1.66-2.31,2.6-3.53a57.82,57.82,0,0,1,15.05-13.24c1.33-.78,2.59-1.54,3.83-2.13.62-.31,1.2-.63,1.78-.89l1.69-.74c1.06-.49,2.07-.82,2.93-1.14.44-.16.84-.32,1.22-.44l1-.31,1.45-.41A3.19,3.19,0,0,1,79.79,337.65Z" style="fill:#263238"></path><path d="M56.06,350.5a72,72,0,0,1-7.39,2.38,71.33,71.33,0,0,1-7.51,2,71,71,0,0,1,7.39-2.38A69.94,69.94,0,0,1,56.06,350.5Z" style="fill:#263238"></path><path d="M55.75,366.81a12.9,12.9,0,0,1-.16-2.3c0-1.43,0-3.39,0-5.57s.17-4.13.29-5.55a12.68,12.68,0,0,1,.29-2.29,13.08,13.08,0,0,1,0,2.3c-.05,1.56-.11,3.46-.17,5.56s-.1,4-.14,5.55A13.15,13.15,0,0,1,55.75,366.81Z" style="fill:#263238"></path><path d="M69.72,359.69c-.11,0-.49-4-.83-8.93s-.52-8.95-.4-9,.48,4,.83,8.93S69.84,359.68,69.72,359.69Z" style="fill:#263238"></path><path d="M52.33,341.41a14.44,14.44,0,0,1,2.37-.07c1.46,0,3.48.06,5.71.13s4.24.16,5.69.25a13.25,13.25,0,0,1,2.36.23,12.92,12.92,0,0,1-2.36.07c-1.46,0-3.48,0-5.71-.13s-4.24-.16-5.7-.25A12.17,12.17,0,0,1,52.33,341.41Z" style="fill:#263238"></path><path d="M85.87,390.07a1.34,1.34,0,0,1-.05-.47c0-.36,0-.81-.07-1.36,0-1.18-.06-2.89,0-5s.18-4.63.44-7.41.67-5.83,1.24-9,1.29-6.17,2-8.88,1.5-5.1,2.21-7.1,1.31-3.6,1.78-4.69L94,344.9a2.07,2.07,0,0,1,.21-.43,2,2,0,0,1-.13.46l-.47,1.28c-.41,1.11-1,2.72-1.65,4.72s-1.39,4.41-2.11,7.11-1.39,5.69-2,8.85-1,6.2-1.27,9-.45,5.28-.53,7.38-.11,3.82-.11,5c0,.55,0,1,0,1.35A2.91,2.91,0,0,1,85.87,390.07Z" style="fill:#263238"></path><path d="M87.73,366.94a9.88,9.88,0,0,1-1.41,1.55c-.91.91-2.21,2.13-3.69,3.43s-2.87,2.43-3.89,3.21a9.7,9.7,0,0,1-1.72,1.2,11.78,11.78,0,0,1,1.53-1.43l3.8-3.3,3.77-3.33A11.49,11.49,0,0,1,87.73,366.94Z" style="fill:#263238"></path><path d="M98.91,376a16.86,16.86,0,0,1-1.5-2.08l-3.49-5.09-3.57-5a16.36,16.36,0,0,1-1.42-2.13,15,15,0,0,1,1.66,1.95c1,1.25,2.29,3,3.68,5s2.56,3.83,3.39,5.18A13.81,13.81,0,0,1,98.91,376Z" style="fill:#263238"></path><path d="M93.05,347.62c.07.1-3.65,2.6-8.29,5.59s-8.46,5.32-8.53,5.23,3.65-2.6,8.3-5.59S93,347.53,93.05,347.62Z" style="fill:#263238"></path><path d="M103.53,358.93a68,68,0,0,1-5.62-5.19,67.44,67.44,0,0,1-5.32-5.5,71,71,0,0,1,5.61,5.19A68.87,68.87,0,0,1,103.53,358.93Z" style="fill:#263238"></path><path d="M106.16,358.7l3.19-.26a15.9,15.9,0,0,0,6.44-2,24.05,24.05,0,0,1,3-1.51c3.94-1.58,8.34-1.3,12.58-1.51a52.13,52.13,0,0,0,20-5.12,2,2,0,0,0,.88-.79c.65-1.2-.57-2.26-1.61-2.9-5.37-3.31-10.84-6.67-16.93-8.31s-13-1.36-18.21,2.21c-6.1,4.2-8.32,12.83-9.35,20.16" style="fill:#004EFF"></path><path d="M152.33,347.14a2.12,2.12,0,0,1-.54-.25l-1.51-.79c-1.31-.69-3.2-1.71-5.59-2.85a51.64,51.64,0,0,0-8.64-3.33,28.5,28.5,0,0,0-11.19-.91,19.15,19.15,0,0,0-10.21,4.39,23,23,0,0,0-5.32,7.46,61.86,61.86,0,0,0-2.31,5.82c-.24.66-.42,1.2-.57,1.61a4,4,0,0,1-.22.55,2.86,2.86,0,0,1,.14-.58c.13-.41.29-1,.49-1.63a54.62,54.62,0,0,1,2.2-5.89,22.65,22.65,0,0,1,5.33-7.63,19.44,19.44,0,0,1,10.41-4.52,28.37,28.37,0,0,1,11.36,1,50.17,50.17,0,0,1,8.67,3.43c2.37,1.18,4.24,2.24,5.53,3l1.47.86A5.06,5.06,0,0,1,152.33,347.14Z" style="fill:#263238"></path><path d="M144.67,351.26c-.06.1-4.23-2.6-9.31-6s-9.14-6.27-9.08-6.37,4.24,2.6,9.31,6S144.74,351.16,144.67,351.26Z" style="fill:#263238"></path><path d="M140.22,338.64a10,10,0,0,1-3,.54,9.84,9.84,0,0,1-3.1,0,20.31,20.31,0,0,1,3.06-.31A20.79,20.79,0,0,1,140.22,338.64Z" style="fill:#263238"></path><path d="M122,336.26a8.06,8.06,0,0,1-1.37,2.14,9.67,9.67,0,0,1-1.73,2,7.89,7.89,0,0,1,1.37-2.14A9,9,0,0,1,122,336.26Z" style="fill:#263238"></path><path d="M125.71,353.71a10.3,10.3,0,0,1-2-1.08c-1.21-.73-2.83-1.81-4.57-3.07s-3.28-2.46-4.38-3.33a11.92,11.92,0,0,1-1.73-1.49,14,14,0,0,1,1.91,1.25l4.45,3.23c1.73,1.26,3.32,2.36,4.48,3.16A14.57,14.57,0,0,1,125.71,353.71Z" style="fill:#263238"></path><path d="M110.85,372.25c-3-.81-6.66,2.15-7.29,5.23s.53,6.24,1.88,9.08A46.34,46.34,0,0,0,118,403a31.1,31.1,0,0,0,19.23,7.08c-1.29-6,.34-12.21-.38-18.28A23.76,23.76,0,0,0,115.82,371c-1.95-.21-4.19-.52-5,1.28" style="fill:#004EFF"></path><path d="M137.25,410.09a2.43,2.43,0,0,1-.44-.2,7.33,7.33,0,0,1-1.13-.77,11.83,11.83,0,0,1-3-4c-.48-.94-1-2-1.55-3.1s-1.06-2.34-1.64-3.61a34.9,34.9,0,0,0-2-3.87,30.73,30.73,0,0,0-2.77-3.76c-2.08-2.45-4.31-4.56-6.25-6.58a45,45,0,0,1-4.77-5.72,21.12,21.12,0,0,1-2.32-4.45,12.43,12.43,0,0,1-.41-1.31,2.3,2.3,0,0,1-.1-.46s.21.62.66,1.71a23,23,0,0,0,2.42,4.34,45.93,45.93,0,0,0,4.8,5.61c2,2,4.19,4.11,6.3,6.58a29.73,29.73,0,0,1,2.79,3.82,34.12,34.12,0,0,1,2,3.93c.56,1.27,1.09,2.49,1.6,3.63s1,2.16,1.5,3.1a12.4,12.4,0,0,0,2.84,4C136.67,409.76,137.27,410.05,137.25,410.09Z" style="fill:#263238"></path><path d="M121.52,405.13a9.45,9.45,0,0,1,.28-2.05c.24-1.25.63-3,1.16-4.84s1.09-3.55,1.54-4.74a9.33,9.33,0,0,1,.83-1.89,10.72,10.72,0,0,1-.55,2c-.37,1.21-.89,2.89-1.42,4.75s-1,3.56-1.27,4.79A10.87,10.87,0,0,1,121.52,405.13Z" style="fill:#263238"></path><path d="M136.67,390.47a12.45,12.45,0,0,1-2.14-.49c-1.31-.35-3.12-.81-5.13-1.27s-3.85-.8-5.18-1.06a12.38,12.38,0,0,1-2.15-.47,10.6,10.6,0,0,1,2.19.18c1.35.18,3.2.48,5.23.94s3.83,1,5.12,1.39A10.83,10.83,0,0,1,136.67,390.47Z" style="fill:#263238"></path><path d="M110.24,394.73a11.75,11.75,0,0,1,.33-2.37c.26-1.45.69-3.45,1.26-5.63s1.17-4.13,1.65-5.53a11.29,11.29,0,0,1,.87-2.22,13.44,13.44,0,0,1-.59,2.31c-.4,1.42-1,3.38-1.52,5.55s-1,4.15-1.38,5.58A14.67,14.67,0,0,1,110.24,394.73Z" style="fill:#263238"></path><path d="M129.69,377.7c0,.11-3.8-.2-8.47-.69s-8.45-1-8.44-1.11,3.81.19,8.48.69A81.39,81.39,0,0,1,129.69,377.7Z" style="fill:#263238"></path><path d="M126.91,423.73c0,.12-13.34.22-29.8.22s-29.81-.1-29.81-.22,13.35-.21,29.81-.21S126.91,423.62,126.91,423.73Z" style="fill:#455a64"></path><path d="M117.63,440.91c0,.11-9,.21-20.08.21s-20.09-.1-20.09-.21,9-.21,20.09-.21S117.63,440.79,117.63,440.91Z" style="fill:#455a64"></path><path d="M117.28,443.36c0,.12-8.84.21-19.73.21s-19.73-.09-19.73-.21,8.83-.21,19.73-.21S117.28,443.25,117.28,443.36Z" style="fill:#455a64"></path><path d="M118,438.88c0,.12-9.3.22-20.77.22s-20.77-.1-20.77-.22,9.29-.21,20.77-.21S118,438.77,118,438.88Z" style="fill:#455a64"></path></g><g id="freepik--speech-bubble--inject-67"><path d="M644.34,183.32l5.5-12.66a32.13,32.13,0,1,1,8.56,7.7l0,0Z" style="fill:#fff"></path><path d="M644.34,183.32l14-5.07,0,.22v0l-.7-.72.86.52a31.92,31.92,0,0,0,15.9,4.7,28.71,28.71,0,0,0,5-.3c.86-.15,1.73-.26,2.6-.43l2.63-.7a32.09,32.09,0,0,0,18.32-14.79,31.54,31.54,0,0,0,4-12.74,32.34,32.34,0,0,0-1.87-14,31.18,31.18,0,0,0-8.13-12.22,31.77,31.77,0,0,0-13.05-7.37,32.33,32.33,0,0,0-14.34-.68A31.37,31.37,0,0,0,657,125a32.27,32.27,0,0,0-13.06,20,34.41,34.41,0,0,0-.31,10.42,31.89,31.89,0,0,0,6.31,15.23l0,.06,0,.06-5.62,12.61c.35-.81,2-4.67,5.39-12.71v.13a31.94,31.94,0,0,1-6.47-15.34,34.53,34.53,0,0,1,.28-10.54,32.4,32.4,0,0,1,4.34-11,32.73,32.73,0,0,1,8.83-9.35,31.85,31.85,0,0,1,12.74-5.29,32.77,32.77,0,0,1,14.57.67,32.26,32.26,0,0,1,13.26,7.49,31.68,31.68,0,0,1,8.26,12.42A32.6,32.6,0,0,1,707.44,154,32,32,0,0,1,703.35,167a32.37,32.37,0,0,1-18.61,14.95l-2.66.7c-.89.17-1.77.28-2.64.42a29.36,29.36,0,0,1-5.08.29,32.1,32.1,0,0,1-16-4.85l.16-.2v0l.14.14-.19.07Z" style="fill:#263238"></path><path d="M687,160.78l1.12-1.53,5.57,4a6,6,0,0,0-2.87-7,5.41,5.41,0,0,0-5.8-.27L669.78,144a5.46,5.46,0,0,0-2-5.67,6.1,6.1,0,0,0-7.56-.51l5.52,4-1,1.37h0l-1.11,1.53-5.58-4a6,6,0,0,0,2.88,7,5.41,5.41,0,0,0,5.8.27l0,0L681.92,160a5.46,5.46,0,0,0,2,5.71,6,6,0,0,0,7.56.51l-5.52-4,1-1.38Z" style="fill:#004EFF"></path></g><g id="freepik--Floor--inject-67"><path d="M717.76,465.85c0,.14-153.47.26-342.74.26S32.24,466,32.24,465.85s153.44-.26,342.78-.26S717.76,465.7,717.76,465.85Z" style="fill:#263238"></path></g></svg>