<svg xmlns="http://www.w3.org/2000/svg" xmlns:xlink="http://www.w3.org/1999/xlink" viewBox="0 0 500 500"><defs><clipPath id="freepik--clip-path--inject-89"><path d="M460.43,106.79v146a6.7,6.7,0,0,1-6.7,6.7H171a6.71,6.71,0,0,1-6.71-6.7v-146a6.71,6.71,0,0,1,6.71-6.7H453.73A6.7,6.7,0,0,1,460.43,106.79Z" style="fill:#fff;stroke:#263238;stroke-linecap:round;stroke-linejoin:round"></path></clipPath><clipPath id="freepik--clip-path-2--inject-89"><path d="M261.12,192v-6.37l-4.78-.41a13.64,13.64,0,0,0-1.18-2.87l3.08-3.66-4.51-4.51-3.66,3.08a13.64,13.64,0,0,0-2.87-1.18l-.41-4.77h-6.37L240,176.1a13.78,13.78,0,0,0-2.86,1.18l-3.66-3.08L229,178.71l3.08,3.66a13.64,13.64,0,0,0-1.18,2.87l-4.78.41V192l4.78.42a13.78,13.78,0,0,0,1.18,2.86L229,199l4.51,4.51,3.66-3.08a13.26,13.26,0,0,0,2.86,1.18l.42,4.78h6.37l.41-4.78a13.13,13.13,0,0,0,2.87-1.18l3.66,3.08,4.51-4.51-3.08-3.66a13.78,13.78,0,0,0,1.18-2.86Zm-17.52,4.23a7.41,7.41,0,1,1,7.41-7.41A7.41,7.41,0,0,1,243.6,196.25Z" style="fill:#004EFF;stroke:#263238;stroke-linecap:round;stroke-linejoin:round"></path></clipPath><clipPath id="freepik--clip-path-3--inject-89"><path d="M229.92,206.88v-4.54l-3.4-.29a9.13,9.13,0,0,0-.84-2l2.2-2.61-3.21-3.21-2.61,2.2a9.13,9.13,0,0,0-2-.84l-.29-3.4h-4.54l-.29,3.4a9.13,9.13,0,0,0-2,.84l-2.6-2.2-3.21,3.21,2.19,2.61a9.13,9.13,0,0,0-.84,2l-3.4.29v4.54l3.4.29a9.13,9.13,0,0,0,.84,2l-2.19,2.6,3.21,3.21,2.6-2.19a9.13,9.13,0,0,0,2,.84l.29,3.4h4.54l.29-3.4a9.13,9.13,0,0,0,2-.84l2.61,2.19,3.21-3.21-2.2-2.6a9.13,9.13,0,0,0,.84-2Zm-12.46,3a5.27,5.27,0,1,1,5.27-5.27A5.27,5.27,0,0,1,217.46,209.88Z" style="fill:#004EFF;stroke:#263238;stroke-linecap:round;stroke-linejoin:round"></path></clipPath><clipPath id="freepik--clip-path-4--inject-89"><path d="M254,281.64c2.05-2.89,15.55,5.15,13.89,10.86s-7.06,5.09-10.22,2.06S251.81,284.73,254,281.64Z" style="fill:#004EFF;stroke:#263238;stroke-linecap:round;stroke-linejoin:round"></path></clipPath><clipPath id="freepik--clip-path-5--inject-89"><path d="M255.61,274.57l-7.6,2.52c-.81.21-2.4-1.13-2.33-2l2.26-26.58a2.54,2.54,0,0,1,1.89-2.24l8.43-1.83c.8-.21,2.83.75,2.76,1.58l-3.51,26.27A2.55,2.55,0,0,1,255.61,274.57Z" style="fill:#004EFF;stroke:#263238;stroke-linecap:round;stroke-linejoin:round"></path></clipPath><clipPath id="freepik--clip-path-6--inject-89"><path d="M202.55,272c10,.15,33,36,33,36L250,290l4-8.34s2,15,13.89,10.86c0,0-10.47,39.38-22.22,44.13S201.34,308,201.34,308Z" style="fill:#004EFF;stroke:#263238;stroke-linecap:round;stroke-linejoin:round"></path></clipPath><clipPath id="freepik--clip-path-7--inject-89"><path d="M206.62,295c.4,7.28.57,14.84.86,20.48.72,13.63,9.84,53.47,9.84,53.47s10,6,10.5,17-60.61,42-77,33.16-14.19-34.52-14.19-34.52-24.26-98-14.33-105.88,13.28-6.9,38.7-10.42S202.55,272,202.55,272a10.44,10.44,0,0,1,2.91,5.13" style="fill:#004EFF;stroke:#263238;stroke-linecap:round;stroke-linejoin:round"></path></clipPath><clipPath id="freepik--clip-path-8--inject-89"><path d="M230.21,437.09,210,453a231.08,231.08,0,0,1-29-4.33h0c-9.57-2.22-17.93-5.4-18.39-9.75-.7-6.63,6.37-8.44,14.79-8.18,1.57,0,3.18.15,4.81.32,13.47,1.45,30.58-6,30.58-6Z" style="fill:#004EFF;stroke:#263238;stroke-linecap:round;stroke-linejoin:round"></path></clipPath><clipPath id="freepik--clip-path-9--inject-89"><path d="M211.38,443.34c3.64.59-.36,8.05-5.3,5.78S207.73,442.75,211.38,443.34Z" style="fill:#fff;stroke:#263238;stroke-linecap:round;stroke-linejoin:round"></path></clipPath><clipPath id="freepik--clip-path-10--inject-89"><path d="M181,448.61c-9.57-2.22-17.93-5.4-18.39-9.75-.7-6.63,6.37-8.44,14.79-8.18C177.8,431,186,438.92,181,448.61Z" style="fill:#fff;stroke:#263238;stroke-linecap:round;stroke-linejoin:round"></path></clipPath><clipPath id="freepik--clip-path-11--inject-89"><path d="M242.64,437.7l21.76,13.65A231.22,231.22,0,0,0,292.76,444h0c9.29-3.21,17.27-7.25,17.27-11.63,0-6.66-7.23-7.72-15.57-6.58-1.56.2-3.15.49-4.75.83-13.24,2.85-31-2.75-31-2.75Z" style="fill:#004EFF;stroke:#263238;stroke-linecap:round;stroke-linejoin:round"></path></clipPath></defs><g id="freepik--background-simple--inject-89"><path d="M67.93,167.09s-27.88,72,11.3,144.5S199.11,422.39,263.7,455.14s131.66,16.8,163.53-36.84-11.84-91.93-11.9-168.42,11.45-96.74-30-161.36-143.06-78.93-219.9-31S67.93,167.09,67.93,167.09Z" style="fill:#fff;opacity:0.7000000000000001"></path><path d="M112.6,91.45a97.3,97.3,0,0,1,13.23-7.7c33.32-15.94,74.22-10.69,106.25,7.72s56,48.5,73.43,81.06c8,14.88,15.09,30.86,27.9,41.86,16.5,14.18,38.79,17.39,58.46,25.11,71.52,28.09,72.34,131.06,9.65,169.51-24.71,15.16-55.23,19.73-83.62,21.85-39.34,2.93-79.39,1.43-117.38-9.19s-73.92-30.83-99.34-61C67.9,321.17,55.07,267.46,56.75,215.83,57.6,189.7,62,163.35,73,139.66,81.93,120.61,95.4,103.35,112.6,91.45Z" style="fill:#004EFF"></path><path d="M112.6,91.45a97.3,97.3,0,0,1,13.23-7.7c33.32-15.94,74.22-10.69,106.25,7.72s56,48.5,73.43,81.06c8,14.88,15.09,30.86,27.9,41.86,16.5,14.18,38.79,17.39,58.46,25.11,71.52,28.09,72.34,131.06,9.65,169.51-24.71,15.16-55.23,19.73-83.62,21.85-39.34,2.93-79.39,1.43-117.38-9.19s-73.92-30.83-99.34-61C67.9,321.17,55.07,267.46,56.75,215.83,57.6,189.7,62,163.35,73,139.66,81.93,120.61,95.4,103.35,112.6,91.45Z" style="fill:#fff;opacity:0.7000000000000001"></path></g><g id="freepik--Clouds--inject-89"><path d="M135.36,134.92a20.14,20.14,0,0,0,.53-4.62,20.54,20.54,0,0,0-20.53-20.54,20.21,20.21,0,0,0-5.36.72,19.69,19.69,0,0,0-36.81,8.43,16.27,16.27,0,0,0-3-.29,16.09,16.09,0,0,0-16,14.29,9,9,0,0,0,.19,17.92H129.7a9,9,0,0,0,5.66-15.91Z" style="fill:none;stroke:#263238;stroke-linecap:round;stroke-linejoin:round"></path><line x1="80.6" y1="166.06" x2="80.6" y2="186.81" style="fill:none;stroke:#263238;stroke-linecap:round;stroke-linejoin:round"></line><line x1="80.6" y1="153.61" x2="80.6" y2="161.91" style="fill:none;stroke:#263238;stroke-linecap:round;stroke-linejoin:round"></line><line x1="80.6" y1="145.86" x2="80.6" y2="150.3" style="fill:none;stroke:#263238;stroke-linecap:round;stroke-linejoin:round"></line><polyline points="76.68 184.38 80.59 189.23 84.51 184.38" style="fill:none;stroke:#263238;stroke-linecap:round;stroke-linejoin:round"></polyline><line x1="93.97" y1="174.95" x2="93.97" y2="195.7" style="fill:none;stroke:#263238;stroke-linecap:round;stroke-linejoin:round"></line><line x1="93.97" y1="162.5" x2="93.97" y2="170.8" style="fill:none;stroke:#263238;stroke-linecap:round;stroke-linejoin:round"></line><line x1="93.97" y1="154.75" x2="93.97" y2="159.19" style="fill:none;stroke:#263238;stroke-linecap:round;stroke-linejoin:round"></line><polyline points="90.05 193.27 93.97 198.12 97.89 193.27" style="fill:none;stroke:#263238;stroke-linecap:round;stroke-linejoin:round"></polyline><line x1="106.46" y1="157.51" x2="106.46" y2="178.26" style="fill:none;stroke:#263238;stroke-linecap:round;stroke-linejoin:round"></line><line x1="106.46" y1="145.06" x2="106.46" y2="153.36" style="fill:none;stroke:#263238;stroke-linecap:round;stroke-linejoin:round"></line><line x1="106.46" y1="137.31" x2="106.46" y2="141.75" style="fill:none;stroke:#263238;stroke-linecap:round;stroke-linejoin:round"></line><polyline points="102.54 175.83 106.46 180.68 110.38 175.83" style="fill:none;stroke:#263238;stroke-linecap:round;stroke-linejoin:round"></polyline><path d="M305.12,275.09a20.54,20.54,0,0,1,25.37-24.44,19.69,19.69,0,0,1,36.81,8.44,16.27,16.27,0,0,1,3-.29,16.09,16.09,0,0,1,16,14.28,9,9,0,0,1-.19,17.92H310.79a9,9,0,0,1-5.67-15.91Z" style="fill:none;stroke:#263238;stroke-linecap:round;stroke-linejoin:round"></path><line x1="356.69" y1="298.63" x2="356.69" y2="277.88" style="fill:none;stroke:#263238;stroke-linecap:round;stroke-linejoin:round"></line><line x1="356.69" y1="311.08" x2="356.69" y2="302.78" style="fill:none;stroke:#263238;stroke-linecap:round;stroke-linejoin:round"></line><line x1="356.69" y1="318.83" x2="356.69" y2="314.4" style="fill:none;stroke:#263238;stroke-linecap:round;stroke-linejoin:round"></line><polyline points="360.61 280.31 356.69 275.46 352.77 280.31" style="fill:none;stroke:#263238;stroke-linecap:round;stroke-linejoin:round"></polyline><line x1="343.32" y1="289.74" x2="343.32" y2="269" style="fill:none;stroke:#263238;stroke-linecap:round;stroke-linejoin:round"></line><line x1="343.32" y1="302.19" x2="343.32" y2="293.89" style="fill:none;stroke:#263238;stroke-linecap:round;stroke-linejoin:round"></line><line x1="343.32" y1="309.95" x2="343.32" y2="305.51" style="fill:none;stroke:#263238;stroke-linecap:round;stroke-linejoin:round"></line><polyline points="347.24 271.42 343.32 266.57 339.4 271.42" style="fill:none;stroke:#263238;stroke-linecap:round;stroke-linejoin:round"></polyline><line x1="330.82" y1="307.18" x2="330.82" y2="286.43" style="fill:none;stroke:#263238;stroke-linecap:round;stroke-linejoin:round"></line><line x1="330.82" y1="319.63" x2="330.82" y2="311.33" style="fill:none;stroke:#263238;stroke-linecap:round;stroke-linejoin:round"></line><line x1="330.82" y1="327.38" x2="330.82" y2="322.94" style="fill:none;stroke:#263238;stroke-linecap:round;stroke-linejoin:round"></line><polyline points="334.74 288.86 330.82 284.01 326.91 288.86" style="fill:none;stroke:#263238;stroke-linecap:round;stroke-linejoin:round"></polyline></g><g id="freepik--Floor--inject-89"><line x1="34.33" y1="445.48" x2="468.3" y2="445.48" style="fill:none;stroke:#263238;stroke-miterlimit:10"></line></g><g id="freepik--Plant--inject-89"><path d="M362.79,384s17.24,1.36,18,14.07C380.75,398.07,363.29,406.11,362.79,384Z" style="fill:#004EFF;stroke:#263238;stroke-linecap:round;stroke-linejoin:round"></path><path d="M396.89,387.15s9.63-13,25.19-6.34C422.08,380.81,412.58,396.55,396.89,387.15Z" style="fill:#004EFF;stroke:#263238;stroke-linecap:round;stroke-linejoin:round"></path><path d="M420.76,346.05s2.77,25-20,18.15C400.73,364.2,408,345.78,420.76,346.05Z" style="fill:#004EFF;stroke:#263238;stroke-linecap:round;stroke-linejoin:round"></path><path d="M392.77,332.1s18,9.73,4.77,24.48C397.54,356.58,384.89,346,392.77,332.1Z" style="fill:#004EFF;stroke:#263238;stroke-linecap:round;stroke-linejoin:round"></path><path d="M370.58,354.49s19.61-2,19.61,16.17C390.19,370.66,370.58,371.43,370.58,354.49Z" style="fill:#004EFF;stroke:#263238;stroke-linecap:round;stroke-linejoin:round"></path><path d="M389.07,424s-8.94-18.76-.36-37.86,11.48-35.2,7-46.54" style="fill:none;stroke:#263238;stroke-linecap:round;stroke-linejoin:round"></path><path d="M377,359.36s11.75,4.67,15.75,16.78" style="fill:none;stroke:#263238;stroke-linecap:round;stroke-linejoin:round"></path><path d="M414.56,356.07s-6.79,9.25-18.29,8.25" style="fill:none;stroke:#263238;stroke-linecap:round;stroke-linejoin:round"></path><path d="M414.56,383.47s-18.81,5.42-26.28,3.65" style="fill:none;stroke:#263238;stroke-linecap:round;stroke-linejoin:round"></path><path d="M368.41,389.72s8.41,9.23,16.86,9.09" style="fill:none;stroke:#263238;stroke-linecap:round;stroke-linejoin:round"></path><polygon points="367.46 409.12 406.93 409.12 402.8 445.19 371.6 445.19 367.46 409.12" style="fill:#263238"></polygon><rect x="365.77" y="408.32" width="42.86" height="5.09" rx="0.99" style="fill:#263238"></rect><line x1="370.58" y1="413.41" x2="394.35" y2="413.41" style="fill:none;stroke:#fff;stroke-linecap:round;stroke-linejoin:round"></line><line x1="398.84" y1="413.41" x2="402.41" y2="413.41" style="fill:none;stroke:#fff;stroke-linecap:round;stroke-linejoin:round"></line></g><g id="freepik--Interface--inject-89"><path d="M460.43,106.79v146a6.7,6.7,0,0,1-6.7,6.7H171a6.71,6.71,0,0,1-6.71-6.7v-146a6.71,6.71,0,0,1,6.71-6.7H453.73A6.7,6.7,0,0,1,460.43,106.79Z" style="fill:#fff"></path><g style="clip-path:url(#freepik--clip-path--inject-89)"><path d="M460.43,114.55V252.82a6.7,6.7,0,0,1-6.7,6.7H275.84v-145Z" style="fill:#004EFF;opacity:0.2"></path></g><path d="M460.43,106.79v146a6.7,6.7,0,0,1-6.7,6.7H171a6.71,6.71,0,0,1-6.71-6.7v-146a6.71,6.71,0,0,1,6.71-6.7H453.73A6.7,6.7,0,0,1,460.43,106.79Z" style="fill:none;stroke:#263238;stroke-linecap:round;stroke-linejoin:round"></path><path d="M435.66,173.63H398.87a7.43,7.43,0,0,0-7.43,7.43h0a7.43,7.43,0,0,0,7.43,7.42h36.79a7.42,7.42,0,0,0,7.43-7.42h0A7.42,7.42,0,0,0,435.66,173.63Z" style="fill:#004EFF;stroke:#263238;stroke-linecap:round;stroke-linejoin:round"></path><path d="M460.43,106.79v13.68H164.27V106.79a6.71,6.71,0,0,1,6.71-6.7H453.73A6.7,6.7,0,0,1,460.43,106.79Z" style="fill:#999;stroke:#263238;stroke-linecap:round;stroke-linejoin:round"></path><circle cx="176.8" cy="109.93" r="4.62" style="fill:#004EFF;stroke:#263238;stroke-linecap:round;stroke-linejoin:round"></circle><circle cx="189.3" cy="109.93" r="4.62" style="fill:#757575;stroke:#263238;stroke-linecap:round;stroke-linejoin:round"></circle><circle cx="201.8" cy="109.93" r="4.62" style="fill:#fff;stroke:#263238;stroke-linecap:round;stroke-linejoin:round"></circle><line x1="275.84" y1="120.47" x2="275.84" y2="259.65" style="fill:none;stroke:#263238;stroke-linecap:round;stroke-linejoin:round"></line><path d="M450.35,114.55H385.6a4.62,4.62,0,0,1-4.61-4.62h0a4.62,4.62,0,0,1,4.61-4.61h64.75a4.62,4.62,0,0,1,4.62,4.61h0A4.62,4.62,0,0,1,450.35,114.55Z" style="fill:#fff;stroke:#263238;stroke-linecap:round;stroke-linejoin:round"></path><path d="M438.54,163.34H298.42a4.55,4.55,0,0,1-4.55-4.55h0a4.55,4.55,0,0,1,4.55-4.55H438.54a4.55,4.55,0,0,1,4.55,4.55h0A4.55,4.55,0,0,1,438.54,163.34Z" style="fill:#bfbfbf;stroke:#263238;stroke-miterlimit:10"></path><path d="M373.54,163.34H298.42a4.55,4.55,0,0,1-4.55-4.55h0a4.55,4.55,0,0,1,4.55-4.55h75.12a4.55,4.55,0,0,1,4.55,4.55h0A4.55,4.55,0,0,1,373.54,163.34Z" style="fill:#004EFF;stroke:#263238;stroke-linecap:round;stroke-linejoin:round"></path><rect x="298.01" y="227.96" width="6.17" height="6.17" style="fill:none;stroke:#263238;stroke-linecap:round;stroke-linejoin:round"></rect><polyline points="299.89 230.62 300.8 231.86 302.31 229.71" style="fill:none;stroke:#263238;stroke-linecap:round;stroke-linejoin:round"></polyline><rect x="313.87" y="229.25" width="45.62" height="3.59" rx="1.8" style="opacity:0.30000000000000004"></rect><path d="M206.82,234.73h0l1-6.85h1.21l-1.3,8.39h-2l-1.3-8.39h1.33Z" style="fill:#263238"></path><path d="M211,231.42h1.81v1.2H211v2.46h2.28v1.19h-3.6v-8.39h3.6v1.2H211Z" style="fill:#263238"></path><path d="M216.84,236.27a2.57,2.57,0,0,1-.12-1v-1.32c0-.77-.27-1.06-.87-1.06h-.45v3.41h-1.32v-8.39h2c1.37,0,2,.64,2,1.93v.66a1.65,1.65,0,0,1-.87,1.69v0c.66.27.88.89.88,1.77v1.3a2.48,2.48,0,0,0,.14,1Zm-1.44-7.19v2.58h.51c.5,0,.8-.22.8-.89v-.83c0-.6-.21-.86-.68-.86Z" style="fill:#263238"></path><path d="M220.18,235v1.27H218.9V235Z" style="fill:#263238"></path><path d="M224.93,229c-.42,0-.69.23-.69.83v.9H223v-.82c0-1.34.67-2.11,2-2.11s2,.77,2,2.11a4.63,4.63,0,0,1-1.63,3.33c-.78.84-1,1.23-1,1.68a1.09,1.09,0,0,0,0,.18h2.5v1.19H223v-1a3.63,3.63,0,0,1,1.31-2.67,3.54,3.54,0,0,0,1.3-2.63C225.61,229.19,225.35,229,224.93,229Z" style="fill:#263238"></path><path d="M229,235v1.27h-1.27V235Z" style="fill:#263238"></path><path d="M229.87,229.89a2,2,0,1,1,4,0v4.37a2,2,0,1,1-4,0Zm1.32,4.45c0,.6.27.83.68.83s.69-.23.69-.83v-4.53c0-.6-.27-.83-.69-.83s-.68.23-.68.83Z" style="fill:#263238"></path><path d="M235.92,233.56v.78c0,.6.26.82.68.82s.69-.22.69-.82V232.5c0-.6-.27-.83-.69-.83s-.68.23-.68.83v.25h-1.25l.24-4.87h3.48v1.2h-2.3l-.11,2h0a1.25,1.25,0,0,1,1.14-.61c1,0,1.47.68,1.47,1.92v1.87a1.84,1.84,0,0,1-2,2.11c-1.3,0-2-.77-2-2.11v-.7Z" style="fill:#263238"></path><path d="M200,202.8a31.52,31.52,0,0,1-7.31-10.56" style="fill:none;stroke:#263238;stroke-linecap:round;stroke-linejoin:round"></path><path d="M228.81,149.36A31.51,31.51,0,0,1,251,168.63" style="fill:none;stroke:#263238;stroke-linecap:round;stroke-linejoin:round"></path><path d="M231.47,172v-9l-6.72-.58a18.2,18.2,0,0,0-1.66-4l4.34-5.15L221.09,147l-5.15,4.33a18.91,18.91,0,0,0-4-1.66l-.58-6.71h-9l-.58,6.71a18.49,18.49,0,0,0-4,1.66L192.62,147l-6.33,6.34,4.33,5.15a18.7,18.7,0,0,0-1.66,4l-6.71.58v9l6.71.58a18.7,18.7,0,0,0,1.66,4l-4.33,5.15,6.33,6.34,5.16-4.33a18.49,18.49,0,0,0,4,1.66l.58,6.71h9l.58-6.71a18.91,18.91,0,0,0,4-1.66l5.15,4.33,6.34-6.34-4.34-5.15a18.2,18.2,0,0,0,1.66-4ZM206.86,178a10.41,10.41,0,1,1,10.41-10.41A10.42,10.42,0,0,1,206.86,178Z" style="fill:#004EFF;stroke:#263238;stroke-linecap:round;stroke-linejoin:round"></path><path d="M261.12,192v-6.37l-4.78-.41a13.64,13.64,0,0,0-1.18-2.87l3.08-3.66-4.51-4.51-3.66,3.08a13.64,13.64,0,0,0-2.87-1.18l-.41-4.77h-6.37L240,176.1a13.78,13.78,0,0,0-2.86,1.18l-3.66-3.08L229,178.71l3.08,3.66a13.64,13.64,0,0,0-1.18,2.87l-4.78.41V192l4.78.42a13.78,13.78,0,0,0,1.18,2.86L229,199l4.51,4.51,3.66-3.08a13.26,13.26,0,0,0,2.86,1.18l.42,4.78h6.37l.41-4.78a13.13,13.13,0,0,0,2.87-1.18l3.66,3.08,4.51-4.51-3.08-3.66a13.78,13.78,0,0,0,1.18-2.86Zm-17.52,4.23a7.41,7.41,0,1,1,7.41-7.41A7.41,7.41,0,0,1,243.6,196.25Z" style="fill:#004EFF"></path><g style="clip-path:url(#freepik--clip-path-2--inject-89)"><path d="M261.12,192v-6.37l-4.78-.41a13.64,13.64,0,0,0-1.18-2.87l3.08-3.66-4.51-4.51-3.66,3.08a13.64,13.64,0,0,0-2.87-1.18l-.41-4.77h-6.37L240,176.1a13.78,13.78,0,0,0-2.86,1.18l-3.66-3.08L229,178.71l3.08,3.66a13.64,13.64,0,0,0-1.18,2.87l-4.78.41V192l4.78.42a13.78,13.78,0,0,0,1.18,2.86L229,199l4.51,4.51,3.66-3.08a13.26,13.26,0,0,0,2.86,1.18l.42,4.78h6.37l.41-4.78a13.13,13.13,0,0,0,2.87-1.18l3.66,3.08,4.51-4.51-3.08-3.66a13.78,13.78,0,0,0,1.18-2.86Zm-17.52,4.23a7.41,7.41,0,1,1,7.41-7.41A7.41,7.41,0,0,1,243.6,196.25Z" style="fill:#fff;opacity:0.30000000000000004"></path></g><path d="M261.12,192v-6.37l-4.78-.41a13.64,13.64,0,0,0-1.18-2.87l3.08-3.66-4.51-4.51-3.66,3.08a13.64,13.64,0,0,0-2.87-1.18l-.41-4.77h-6.37L240,176.1a13.78,13.78,0,0,0-2.86,1.18l-3.66-3.08L229,178.71l3.08,3.66a13.64,13.64,0,0,0-1.18,2.87l-4.78.41V192l4.78.42a13.78,13.78,0,0,0,1.18,2.86L229,199l4.51,4.51,3.66-3.08a13.26,13.26,0,0,0,2.86,1.18l.42,4.78h6.37l.41-4.78a13.13,13.13,0,0,0,2.87-1.18l3.66,3.08,4.51-4.51-3.08-3.66a13.78,13.78,0,0,0,1.18-2.86Zm-17.52,4.23a7.41,7.41,0,1,1,7.41-7.41A7.41,7.41,0,0,1,243.6,196.25Z" style="fill:none;stroke:#263238;stroke-linecap:round;stroke-linejoin:round"></path><path d="M229.92,206.88v-4.54l-3.4-.29a9.13,9.13,0,0,0-.84-2l2.2-2.61-3.21-3.21-2.61,2.2a9.13,9.13,0,0,0-2-.84l-.29-3.4h-4.54l-.29,3.4a9.13,9.13,0,0,0-2,.84l-2.6-2.2-3.21,3.21,2.19,2.61a9.13,9.13,0,0,0-.84,2l-3.4.29v4.54l3.4.29a9.13,9.13,0,0,0,.84,2l-2.19,2.6,3.21,3.21,2.6-2.19a9.13,9.13,0,0,0,2,.84l.29,3.4h4.54l.29-3.4a9.13,9.13,0,0,0,2-.84l2.61,2.19,3.21-3.21-2.2-2.6a9.13,9.13,0,0,0,.84-2Zm-12.46,3a5.27,5.27,0,1,1,5.27-5.27A5.27,5.27,0,0,1,217.46,209.88Z" style="fill:#004EFF"></path><g style="clip-path:url(#freepik--clip-path-3--inject-89)"><path d="M229.92,206.88v-4.54l-3.4-.29a9.13,9.13,0,0,0-.84-2l2.2-2.61-3.21-3.21-2.61,2.2a9.13,9.13,0,0,0-2-.84l-.29-3.4h-4.54l-.29,3.4a9.13,9.13,0,0,0-2,.84l-2.6-2.2-3.21,3.21,2.19,2.61a9.13,9.13,0,0,0-.84,2l-3.4.29v4.54l3.4.29a9.13,9.13,0,0,0,.84,2l-2.19,2.6,3.21,3.21,2.6-2.19a9.13,9.13,0,0,0,2,.84l.29,3.4h4.54l.29-3.4a9.13,9.13,0,0,0,2-.84l2.61,2.19,3.21-3.21-2.2-2.6a9.13,9.13,0,0,0,.84-2Zm-12.46,3a5.27,5.27,0,1,1,5.27-5.27A5.27,5.27,0,0,1,217.46,209.88Z" style="fill:#fff;opacity:0.5"></path></g><path d="M229.92,206.88v-4.54l-3.4-.29a9.13,9.13,0,0,0-.84-2l2.2-2.61-3.21-3.21-2.61,2.2a9.13,9.13,0,0,0-2-.84l-.29-3.4h-4.54l-.29,3.4a9.13,9.13,0,0,0-2,.84l-2.6-2.2-3.21,3.21,2.19,2.61a9.13,9.13,0,0,0-.84,2l-3.4.29v4.54l3.4.29a9.13,9.13,0,0,0,.84,2l-2.19,2.6,3.21,3.21,2.6-2.19a9.13,9.13,0,0,0,2,.84l.29,3.4h4.54l.29-3.4a9.13,9.13,0,0,0,2-.84l2.61,2.19,3.21-3.21-2.2-2.6a9.13,9.13,0,0,0,.84-2Zm-12.46,3a5.27,5.27,0,1,1,5.27-5.27A5.27,5.27,0,0,1,217.46,209.88Z" style="fill:none;stroke:#263238;stroke-linecap:round;stroke-linejoin:round"></path><polyline points="248.61 167.54 251.02 168.63 251.97 166.46" style="fill:none;stroke:#263238;stroke-linecap:round;stroke-linejoin:round"></polyline><polyline points="195.06 193.24 192.64 192.15 191.69 194.33" style="fill:none;stroke:#263238;stroke-linecap:round;stroke-linejoin:round"></polyline><path d="M295.19,143v4.91c0,.46.2.62.52.62s.52-.16.52-.62V143h.95v4.85a1.4,1.4,0,0,1-1.5,1.6c-1,0-1.49-.58-1.49-1.6V143Z" style="fill:#263238"></path><path d="M300.82,144.56v.83c0,1-.49,1.58-1.49,1.58h-.47v2.39h-1V143h1.47C300.33,143,300.82,143.55,300.82,144.56Zm-2-.66v2.16h.47c.32,0,.49-.15.49-.6v-1c0-.45-.17-.6-.49-.6Z" style="fill:#263238"></path><path d="M304.4,149.36h-1l-.17-1.16H302l-.17,1.16h-.92l1-6.37h1.46Zm-2.28-2h1l-.47-3.22h0Z" style="fill:#263238"></path><path d="M304.86,143h1.59c1,0,1.49.56,1.49,1.57v3.22c0,1-.49,1.58-1.49,1.58h-1.59Zm1,.91v4.55h.57c.32,0,.51-.17.51-.62v-3.31c0-.46-.19-.62-.51-.62Z" style="fill:#263238"></path><path d="M311.8,149.36h-1l-.17-1.16h-1.23l-.17,1.16h-.92l1-6.37h1.46Zm-2.28-2h1l-.47-3.22h0Z" style="fill:#263238"></path><path d="M311.63,143h3.09v.91h-1.05v5.46h-1V143.9h-1Z" style="fill:#263238"></path><path d="M315.15,143h1v6.37h-1Z" style="fill:#263238"></path><path d="M317.79,144.75h0v4.61h-.9V143h1.26l1,3.81h0V143H320v6.37h-1Z" style="fill:#263238"></path><path d="M322.26,145.81h1.4v2c0,1-.51,1.6-1.49,1.6s-1.49-.58-1.49-1.6v-3.31c0-1,.51-1.6,1.49-1.6s1.49.58,1.49,1.6v.62h-1v-.68c0-.46-.2-.63-.51-.63s-.52.17-.52.63v3.43c0,.46.2.62.52.62s.51-.16.51-.62v-1.17h-.45Z" style="fill:#263238"></path><polygon points="452.09 192.57 435.47 180.72 440.2 200.57 443.61 195.51 446.75 200.18 449.26 198.49 446.12 193.82 452.09 192.57" style="fill:#263238"></polygon></g></svg>